<svg xmlns="http://www.w3.org/2000/svg" xmlns:xlink="http://www.w3.org/1999/xlink" version="1.1" width="1000" height="1000" viewBox="0 0 1000 1000" xml:space="preserve">
<desc>Created with Fabric.js 3.5.0</desc>
<defs>
</defs>
<rect x="0" y="0" width="100%" height="100%" fill="#ffffff"/>
<g transform="matrix(0.4335 0.4529 -0.4529 0.4335 770.4591 175.4983)" id="863188">
<g style="" vector-effect="non-scaling-stroke">
		<g transform="matrix(1 0 0 1 -0.0005 0)" id="Capa_1">
<path style="stroke: none; stroke-width: 1; stroke-dasharray: none; stroke-linecap: butt; stroke-dashoffset: 0; stroke-linejoin: miter; stroke-miterlimit: 4; is-custom-font: none; font-file-url: none; fill: rgb(0,0,0); fill-rule: nonzero; opacity: 1;" transform=" translate(-223.281, -223.2815)" d="M 388.679 70.746 v -2.13 c 0 -4.803 -1.866 -9.303 -5.24 -12.659 c -3.385 -3.386 -7.885 -5.251 -12.67 -5.251 c -9.876 0 -17.91 8.035 -17.91 17.91 v 2.13 h -36.996 v -2.13 c 0 -4.803 -1.866 -9.303 -5.24 -12.659 c -3.385 -3.386 -7.885 -5.251 -12.67 -5.251 c -9.876 0 -17.91 8.035 -17.91 17.91 v 2.13 h -36.996 v -2.13 c 0 -4.802 -1.865 -9.302 -5.24 -12.66 c -3.387 -3.386 -7.886 -5.25 -12.67 -5.25 c -9.875 0 -17.91 8.035 -17.91 17.91 v 2.13 H 170.23 v -2.13 c 0 -4.802 -1.866 -9.303 -5.24 -12.66 c -3.386 -3.386 -7.885 -5.25 -12.67 -5.25 c -9.875 0 -17.91 8.035 -17.91 17.91 v 2.13 H 97.414 v -2.13 c 0 -4.802 -1.866 -9.303 -5.24 -12.66 c -3.386 -3.386 -7.885 -5.25 -12.669 -5.25 c -9.875 0 -17.91 8.035 -17.91 17.91 v 2.13 H 25.618 v 6.703 L 0 379.885 h 25.618 v 15.972 h 420.944 V 70.746 H 388.679 z M 366.858 68.616 c 0 -2.156 1.754 -3.91 3.91 -3.91 c 1.045 0 2.028 0.408 2.783 1.164 c 0.727 0.723 1.127 1.698 1.127 2.747 v 2.13 h -7.82 V 68.616 z M 294.042 68.616 c 0 -2.156 1.754 -3.91 3.91 -3.91 c 1.339 0 2.245 0.625 2.783 1.164 c 0.727 0.723 1.127 1.698 1.127 2.747 v 2.13 h -7.82 V 68.616 z M 221.226 68.616 c 0 -2.156 1.754 -3.91 3.91 -3.91 c 1.34 0 2.246 0.625 2.783 1.162 c 0.727 0.723 1.127 1.699 1.127 2.748 v 2.13 h -7.82 V 68.616 z M 148.41 68.616 c 0 -2.156 1.754 -3.91 3.91 -3.91 c 1.339 0 2.246 0.625 2.783 1.163 c 0.727 0.723 1.127 1.699 1.127 2.748 v 2.13 h -7.82 V 68.616 z M 75.594 68.616 c 0 -2.156 1.754 -3.91 3.91 -3.91 c 1.339 0 2.246 0.625 2.783 1.163 c 0.727 0.723 1.127 1.699 1.127 2.748 v 2.13 h -7.82 V 68.616 z M 15.236 365.885 l 10.382 -122.564 v 122.564 H 15.236 z M 432.563 381.857 H 39.618 V 84.746 h 43.795 v 9.092 c -7.533 2.842 -12.916 10.105 -12.916 18.621 c 0 10.981 8.934 19.916 19.916 19.916 s 19.916 -8.934 19.916 -19.916 c 0 -8.515 -5.382 -15.779 -12.916 -18.621 v -9.092 h 58.816 v 9.092 c -7.533 2.842 -12.916 10.105 -12.916 18.621 c 0 10.981 8.934 19.916 19.916 19.916 c 10.981 0 19.915 -8.934 19.915 -19.916 c 0 -8.515 -5.382 -15.778 -12.915 -18.62 v -9.092 h 58.816 v 9.092 c -7.533 2.842 -12.916 10.105 -12.916 18.621 c 0 10.981 8.934 19.916 19.916 19.916 s 19.915 -8.934 19.915 -19.916 c 0 -8.515 -5.382 -15.778 -12.915 -18.621 v -9.092 h 58.816 v 9.092 c -7.533 2.842 -12.916 10.105 -12.916 18.621 c 0 10.981 8.935 19.916 19.916 19.916 s 19.915 -8.934 19.915 -19.916 c 0 -8.515 -5.382 -15.778 -12.915 -18.621 v -9.092 h 58.816 v 9.092 c -7.533 2.842 -12.916 10.105 -12.916 18.621 c 0 10.981 8.935 19.916 19.916 19.916 s 19.915 -8.934 19.915 -19.916 c 0 -8.515 -5.382 -15.778 -12.915 -18.621 v -9.092 h 43.884 V 381.857 z M 96.329 112.459 c 0 3.262 -2.654 5.916 -5.916 5.916 s -5.916 -2.654 -5.916 -5.916 s 2.654 -5.915 5.916 -5.915 S 96.329 109.197 96.329 112.459 z M 169.145 112.459 c 0 3.262 -2.653 5.916 -5.915 5.916 s -5.916 -2.654 -5.916 -5.916 s 2.654 -5.915 5.916 -5.915 S 169.145 109.197 169.145 112.459 z M 241.961 112.459 c 0 3.262 -2.653 5.916 -5.915 5.916 s -5.915 -2.654 -5.915 -5.916 s 2.653 -5.915 5.915 -5.915 S 241.961 109.197 241.961 112.459 z M 314.777 112.459 c 0 3.262 -2.653 5.916 -5.915 5.916 s -5.916 -2.654 -5.916 -5.916 s 2.654 -5.915 5.916 -5.915 S 314.777 109.197 314.777 112.459 z M 387.594 112.459 c 0 3.262 -2.653 5.916 -5.915 5.916 s -5.916 -2.654 -5.916 -5.916 s 2.654 -5.915 5.916 -5.915 S 387.594 109.197 387.594 112.459 z" stroke-linecap="round"/>
</g>
		<g transform="matrix(1 0 0 1 12.8085 34.514)" id="Capa_1">
<path style="stroke: none; stroke-width: 1; stroke-dasharray: none; stroke-linecap: butt; stroke-dashoffset: 0; stroke-linejoin: miter; stroke-miterlimit: 4; is-custom-font: none; font-file-url: none; fill: rgb(0,0,0); fill-rule: nonzero; opacity: 1;" transform=" translate(-236.09, -257.7955)" d="M 66.243 354.885 h 339.694 V 160.706 H 66.243 V 354.885 z M 80.243 174.706 h 311.694 v 166.179 H 80.243 V 174.706 z" stroke-linecap="round"/>
</g>
		<g transform="matrix(1 0 0 1 -119.1915 -20.4865)" id="Capa_1">
<rect style="stroke: none; stroke-width: 1; stroke-dasharray: none; stroke-linecap: butt; stroke-dashoffset: 0; stroke-linejoin: miter; stroke-miterlimit: 4; is-custom-font: none; font-file-url: none; fill: rgb(0,0,0); fill-rule: nonzero; opacity: 1;" x="-11" y="-11" rx="0" ry="0" width="22" height="22"/>
</g>
		<g transform="matrix(1 0 0 1 -77.9415 -20.4865)" id="Capa_1">
<rect style="stroke: none; stroke-width: 1; stroke-dasharray: none; stroke-linecap: butt; stroke-dashoffset: 0; stroke-linejoin: miter; stroke-miterlimit: 4; is-custom-font: none; font-file-url: none; fill: rgb(0,0,0); fill-rule: nonzero; opacity: 1;" x="-11" y="-11" rx="0" ry="0" width="22" height="22"/>
</g>
		<g transform="matrix(1 0 0 1 -36.6915 -20.4865)" id="Capa_1">
<rect style="stroke: none; stroke-width: 1; stroke-dasharray: none; stroke-linecap: butt; stroke-dashoffset: 0; stroke-linejoin: miter; stroke-miterlimit: 4; is-custom-font: none; font-file-url: none; fill: rgb(0,0,0); fill-rule: nonzero; opacity: 1;" x="-11" y="-11" rx="0" ry="0" width="22" height="22"/>
</g>
		<g transform="matrix(1 0 0 1 4.5585 -20.4865)" id="Capa_1">
<rect style="stroke: none; stroke-width: 1; stroke-dasharray: none; stroke-linecap: butt; stroke-dashoffset: 0; stroke-linejoin: miter; stroke-miterlimit: 4; is-custom-font: none; font-file-url: none; fill: rgb(0,0,0); fill-rule: nonzero; opacity: 1;" x="-11" y="-11" rx="0" ry="0" width="22" height="22"/>
</g>
		<g transform="matrix(1 0 0 1 45.8095 -20.4865)" id="Capa_1">
<rect style="stroke: none; stroke-width: 1; stroke-dasharray: none; stroke-linecap: butt; stroke-dashoffset: 0; stroke-linejoin: miter; stroke-miterlimit: 4; is-custom-font: none; font-file-url: none; fill: rgb(0,0,0); fill-rule: nonzero; opacity: 1;" x="-11" y="-11" rx="0" ry="0" width="22" height="22"/>
</g>
		<g transform="matrix(1 0 0 1 144.8095 -20.4865)" id="Capa_1">
<rect style="stroke: none; stroke-width: 1; stroke-dasharray: none; stroke-linecap: butt; stroke-dashoffset: 0; stroke-linejoin: miter; stroke-miterlimit: 4; is-custom-font: none; font-file-url: none; fill: rgb(0,0,0); fill-rule: nonzero; opacity: 1;" x="-11" y="-11" rx="0" ry="0" width="22" height="22"/>
</g>
		<g transform="matrix(1 0 0 1 105.8095 -20.4865)" id="Capa_1">
<rect style="stroke: none; stroke-width: 1; stroke-dasharray: none; stroke-linecap: butt; stroke-dashoffset: 0; stroke-linejoin: miter; stroke-miterlimit: 4; is-custom-font: none; font-file-url: none; fill: rgb(0,0,0); fill-rule: nonzero; opacity: 1;" x="-11" y="-11" rx="0" ry="0" width="22" height="22"/>
</g>
		<g transform="matrix(1 0 0 1 -119.1915 16.1805)" id="Capa_1">
<rect style="stroke: none; stroke-width: 1; stroke-dasharray: none; stroke-linecap: butt; stroke-dashoffset: 0; stroke-linejoin: miter; stroke-miterlimit: 4; is-custom-font: none; font-file-url: none; fill: rgb(0,0,0); fill-rule: nonzero; opacity: 1;" x="-11" y="-11" rx="0" ry="0" width="22" height="22"/>
</g>
		<g transform="matrix(1 0 0 1 -77.9415 16.1805)" id="Capa_1">
<rect style="stroke: none; stroke-width: 1; stroke-dasharray: none; stroke-linecap: butt; stroke-dashoffset: 0; stroke-linejoin: miter; stroke-miterlimit: 4; is-custom-font: none; font-file-url: none; fill: rgb(0,0,0); fill-rule: nonzero; opacity: 1;" x="-11" y="-11" rx="0" ry="0" width="22" height="22"/>
</g>
		<g transform="matrix(1 0 0 1 -36.6915 16.1805)" id="Capa_1">
<rect style="stroke: none; stroke-width: 1; stroke-dasharray: none; stroke-linecap: butt; stroke-dashoffset: 0; stroke-linejoin: miter; stroke-miterlimit: 4; is-custom-font: none; font-file-url: none; fill: rgb(0,0,0); fill-rule: nonzero; opacity: 1;" x="-11" y="-11" rx="0" ry="0" width="22" height="22"/>
</g>
		<g transform="matrix(1 0 0 1 4.5585 16.1805)" id="Capa_1">
<rect style="stroke: none; stroke-width: 1; stroke-dasharray: none; stroke-linecap: butt; stroke-dashoffset: 0; stroke-linejoin: miter; stroke-miterlimit: 4; is-custom-font: none; font-file-url: none; fill: rgb(0,0,0); fill-rule: nonzero; opacity: 1;" x="-11" y="-11" rx="0" ry="0" width="22" height="22"/>
</g>
		<g transform="matrix(1 0 0 1 45.8095 16.1805)" id="Capa_1">
<rect style="stroke: none; stroke-width: 1; stroke-dasharray: none; stroke-linecap: butt; stroke-dashoffset: 0; stroke-linejoin: miter; stroke-miterlimit: 4; is-custom-font: none; font-file-url: none; fill: rgb(0,0,0); fill-rule: nonzero; opacity: 1;" x="-11" y="-11" rx="0" ry="0" width="22" height="22"/>
</g>
		<g transform="matrix(1 0 0 1 144.8095 16.1805)" id="Capa_1">
<rect style="stroke: none; stroke-width: 1; stroke-dasharray: none; stroke-linecap: butt; stroke-dashoffset: 0; stroke-linejoin: miter; stroke-miterlimit: 4; is-custom-font: none; font-file-url: none; fill: rgb(0,0,0); fill-rule: nonzero; opacity: 1;" x="-11" y="-11" rx="0" ry="0" width="22" height="22"/>
</g>
		<g transform="matrix(1 0 0 1 105.8095 16.1805)" id="Capa_1">
<rect style="stroke: none; stroke-width: 1; stroke-dasharray: none; stroke-linecap: butt; stroke-dashoffset: 0; stroke-linejoin: miter; stroke-miterlimit: 4; is-custom-font: none; font-file-url: none; fill: rgb(0,0,0); fill-rule: nonzero; opacity: 1;" x="-11" y="-11" rx="0" ry="0" width="22" height="22"/>
</g>
		<g transform="matrix(1 0 0 1 -119.1915 52.8465)" id="Capa_1">
<rect style="stroke: none; stroke-width: 1; stroke-dasharray: none; stroke-linecap: butt; stroke-dashoffset: 0; stroke-linejoin: miter; stroke-miterlimit: 4; is-custom-font: none; font-file-url: none; fill: rgb(0,0,0); fill-rule: nonzero; opacity: 1;" x="-11" y="-11" rx="0" ry="0" width="22" height="22"/>
</g>
		<g transform="matrix(1 0 0 1 -77.9415 52.8465)" id="Capa_1">
<rect style="stroke: none; stroke-width: 1; stroke-dasharray: none; stroke-linecap: butt; stroke-dashoffset: 0; stroke-linejoin: miter; stroke-miterlimit: 4; is-custom-font: none; font-file-url: none; fill: rgb(0,0,0); fill-rule: nonzero; opacity: 1;" x="-11" y="-11" rx="0" ry="0" width="22" height="22"/>
</g>
		<g transform="matrix(1 0 0 1 -36.6915 52.8465)" id="Capa_1">
<rect style="stroke: none; stroke-width: 1; stroke-dasharray: none; stroke-linecap: butt; stroke-dashoffset: 0; stroke-linejoin: miter; stroke-miterlimit: 4; is-custom-font: none; font-file-url: none; fill: rgb(0,0,0); fill-rule: nonzero; opacity: 1;" x="-11" y="-11" rx="0" ry="0" width="22" height="22"/>
</g>
		<g transform="matrix(1 0 0 1 4.5585 52.8465)" id="Capa_1">
<rect style="stroke: none; stroke-width: 1; stroke-dasharray: none; stroke-linecap: butt; stroke-dashoffset: 0; stroke-linejoin: miter; stroke-miterlimit: 4; is-custom-font: none; font-file-url: none; fill: rgb(0,0,0); fill-rule: nonzero; opacity: 1;" x="-11" y="-11" rx="0" ry="0" width="22" height="22"/>
</g>
		<g transform="matrix(1 0 0 1 45.8095 52.8465)" id="Capa_1">
<rect style="stroke: none; stroke-width: 1; stroke-dasharray: none; stroke-linecap: butt; stroke-dashoffset: 0; stroke-linejoin: miter; stroke-miterlimit: 4; is-custom-font: none; font-file-url: none; fill: rgb(0,0,0); fill-rule: nonzero; opacity: 1;" x="-11" y="-11" rx="0" ry="0" width="22" height="22"/>
</g>
		<g transform="matrix(1 0 0 1 144.8095 52.8465)" id="Capa_1">
<rect style="stroke: none; stroke-width: 1; stroke-dasharray: none; stroke-linecap: butt; stroke-dashoffset: 0; stroke-linejoin: miter; stroke-miterlimit: 4; is-custom-font: none; font-file-url: none; fill: rgb(0,0,0); fill-rule: nonzero; opacity: 1;" x="-11" y="-11" rx="0" ry="0" width="22" height="22"/>
</g>
		<g transform="matrix(1 0 0 1 105.8095 52.8465)" id="Capa_1">
<rect style="stroke: none; stroke-width: 1; stroke-dasharray: none; stroke-linecap: butt; stroke-dashoffset: 0; stroke-linejoin: miter; stroke-miterlimit: 4; is-custom-font: none; font-file-url: none; fill: rgb(0,0,0); fill-rule: nonzero; opacity: 1;" x="-11" y="-11" rx="0" ry="0" width="22" height="22"/>
</g>
		<g transform="matrix(1 0 0 1 -119.1915 89.5135)" id="Capa_1">
<rect style="stroke: none; stroke-width: 1; stroke-dasharray: none; stroke-linecap: butt; stroke-dashoffset: 0; stroke-linejoin: miter; stroke-miterlimit: 4; is-custom-font: none; font-file-url: none; fill: rgb(0,0,0); fill-rule: nonzero; opacity: 1;" x="-11" y="-11" rx="0" ry="0" width="22" height="22"/>
</g>
		<g transform="matrix(1 0 0 1 -77.9415 89.5135)" id="Capa_1">
<rect style="stroke: none; stroke-width: 1; stroke-dasharray: none; stroke-linecap: butt; stroke-dashoffset: 0; stroke-linejoin: miter; stroke-miterlimit: 4; is-custom-font: none; font-file-url: none; fill: rgb(0,0,0); fill-rule: nonzero; opacity: 1;" x="-11" y="-11" rx="0" ry="0" width="22" height="22"/>
</g>
		<g transform="matrix(1 0 0 1 -36.6915 89.5135)" id="Capa_1">
<rect style="stroke: none; stroke-width: 1; stroke-dasharray: none; stroke-linecap: butt; stroke-dashoffset: 0; stroke-linejoin: miter; stroke-miterlimit: 4; is-custom-font: none; font-file-url: none; fill: rgb(0,0,0); fill-rule: nonzero; opacity: 1;" x="-11" y="-11" rx="0" ry="0" width="22" height="22"/>
</g>
		<g transform="matrix(1 0 0 1 4.5585 89.5135)" id="Capa_1">
<rect style="stroke: none; stroke-width: 1; stroke-dasharray: none; stroke-linecap: butt; stroke-dashoffset: 0; stroke-linejoin: miter; stroke-miterlimit: 4; is-custom-font: none; font-file-url: none; fill: rgb(0,0,0); fill-rule: nonzero; opacity: 1;" x="-11" y="-11" rx="0" ry="0" width="22" height="22"/>
</g>
		<g transform="matrix(1 0 0 1 45.8095 89.5135)" id="Capa_1">
<rect style="stroke: none; stroke-width: 1; stroke-dasharray: none; stroke-linecap: butt; stroke-dashoffset: 0; stroke-linejoin: miter; stroke-miterlimit: 4; is-custom-font: none; font-file-url: none; fill: rgb(0,0,0); fill-rule: nonzero; opacity: 1;" x="-11" y="-11" rx="0" ry="0" width="22" height="22"/>
</g>
		<g transform="matrix(1 0 0 1 144.8095 89.5135)" id="Capa_1">
<rect style="stroke: none; stroke-width: 1; stroke-dasharray: none; stroke-linecap: butt; stroke-dashoffset: 0; stroke-linejoin: miter; stroke-miterlimit: 4; is-custom-font: none; font-file-url: none; fill: rgb(0,0,0); fill-rule: nonzero; opacity: 1;" x="-11" y="-11" rx="0" ry="0" width="22" height="22"/>
</g>
		<g transform="matrix(1 0 0 1 105.8095 89.5135)" id="Capa_1">
<rect style="stroke: none; stroke-width: 1; stroke-dasharray: none; stroke-linecap: butt; stroke-dashoffset: 0; stroke-linejoin: miter; stroke-miterlimit: 4; is-custom-font: none; font-file-url: none; fill: rgb(0,0,0); fill-rule: nonzero; opacity: 1;" x="-11" y="-11" rx="0" ry="0" width="22" height="22"/>
</g>
</g>
</g>
<g transform="matrix(8.9626 -7.4657 7.4657 8.9626 202.2991 176.2695)" id="155630">
<g style="" vector-effect="non-scaling-stroke">
		<g transform="matrix(1 0 0 1 0 -3)">
<rect style="stroke: none; stroke-width: 1; stroke-dasharray: none; stroke-linecap: butt; stroke-dashoffset: 0; stroke-linejoin: miter; stroke-miterlimit: 4; is-custom-font: none; font-file-url: none; fill: rgb(230,126,34); fill-rule: nonzero; opacity: 1;" x="-7" y="-7" rx="0" ry="0" width="14" height="14"/>
</g>
		<g transform="matrix(1 0 0 1 0 1)">
<path style="stroke: none; stroke-width: 1; stroke-dasharray: none; stroke-linecap: butt; stroke-dashoffset: 0; stroke-linejoin: miter; stroke-miterlimit: 4; is-custom-font: none; font-file-url: none; fill: rgb(241,196,15); fill-rule: nonzero; opacity: 1;" transform=" translate(-12, -13)" d="m 4 5 v 16 h 16 v -16 h -16 z" stroke-linecap="round"/>
</g>
		<g transform="matrix(1 0 0 1 -7 -8)">
<path style="stroke: none; stroke-width: 1; stroke-dasharray: none; stroke-linecap: butt; stroke-dashoffset: 0; stroke-linejoin: miter; stroke-miterlimit: 4; is-custom-font: none; font-file-url: none; fill: rgb(243,156,18); fill-rule: nonzero; opacity: 1;" transform=" translate(-5, -1032.4)" d="m 6 1031.4 l -2 2 h 2 v -2 z" stroke-linecap="round"/>
</g>
		<g transform="matrix(1 0 0 1 -6.5 -9)">
<path style="stroke: none; stroke-width: 1; stroke-dasharray: none; stroke-linecap: butt; stroke-dashoffset: 0; stroke-linejoin: miter; stroke-miterlimit: 4; is-custom-font: none; font-file-url: none; fill: rgb(241,196,15); fill-rule: nonzero; opacity: 1;" transform=" translate(-5.5, -1031.4)" d="m 5 1030.4 v 2 l 1 -1 z" stroke-linecap="round"/>
</g>
		<g transform="matrix(1 0 0 1 7 -8)">
<path style="stroke: none; stroke-width: 1; stroke-dasharray: none; stroke-linecap: butt; stroke-dashoffset: 0; stroke-linejoin: miter; stroke-miterlimit: 4; is-custom-font: none; font-file-url: none; fill: rgb(243,156,18); fill-rule: nonzero; opacity: 1;" transform=" translate(-19, -1032.4)" d="m 18 1031.4 l 2 2 h -2 v -2 z" stroke-linecap="round"/>
</g>
		<g transform="matrix(1 0 0 1 6.5 -9)">
<path style="stroke: none; stroke-width: 1; stroke-dasharray: none; stroke-linecap: butt; stroke-dashoffset: 0; stroke-linejoin: miter; stroke-miterlimit: 4; is-custom-font: none; font-file-url: none; fill: rgb(241,196,15); fill-rule: nonzero; opacity: 1;" transform=" translate(-18.5, -1031.4)" d="m 19 1030.4 v 2 l -1 -1 z" stroke-linecap="round"/>
</g>
		<g transform="matrix(1 0 0 1 0 1)">
<path style="stroke: none; stroke-width: 1; stroke-dasharray: none; stroke-linecap: butt; stroke-dashoffset: 0; stroke-linejoin: miter; stroke-miterlimit: 4; is-custom-font: none; font-file-url: none; fill: rgb(243,156,18); fill-rule: nonzero; opacity: 1;" transform=" translate(-12, -1041.4)" d="m 12 1045.4 c 2.761 0 5 -2.3 5 -5 v -3 h -1 v 3 c 0 2.2 -1.791 4 -4 4 c -2.2091 0 -4 -1.8 -4 -4 v -3 h -1 v 3 c 0 2.7 2.2386 5 5 5 z" stroke-linecap="round"/>
</g>
		<g transform="matrix(1 0 0 1 0 0)">
<path style="stroke: none; stroke-width: 1; stroke-dasharray: none; stroke-linecap: butt; stroke-dashoffset: 0; stroke-linejoin: miter; stroke-miterlimit: 4; is-custom-font: none; font-file-url: none; fill: rgb(236,240,241); fill-rule: nonzero; opacity: 1;" transform=" translate(-12, -1040.4)" d="m 12 1044.4 c -2.7614 0 -5 -2.3 -5 -5 v -3 h 1 v 3 c 0 2.2 1.7909 4 4 4 c 2.209 0 4 -1.8 4 -4 v -3 h 1 v 3 c 0 2.7 -2.239 5 -5 5 z" stroke-linecap="round"/>
</g>
		<g transform="matrix(1 0 0 1 0 -4.5)">
<path style="stroke: none; stroke-width: 1; stroke-dasharray: none; stroke-linecap: butt; stroke-dashoffset: 0; stroke-linejoin: miter; stroke-miterlimit: 4; is-custom-font: none; font-file-url: none; fill: rgb(243,156,18); fill-rule: nonzero; opacity: 1;" transform=" translate(-12, -1035.9)" d="m 17 1035.4 v 1 h -1 v -1 h 1 z m -9 0 v 1 h -1 v -1 h 1 z" stroke-linecap="round"/>
</g>
		<g transform="matrix(1 0 0 1 0 9.5)">
<path style="stroke: none; stroke-width: 1; stroke-dasharray: none; stroke-linecap: butt; stroke-dashoffset: 0; stroke-linejoin: miter; stroke-miterlimit: 4; is-custom-font: none; font-file-url: none; fill: rgb(243,156,18); fill-rule: nonzero; opacity: 1;" transform=" translate(-12, -1049.9)" d="m 4 1049.4 l 1 1 h 2 h 10 h 2 l 1 -1 h -16 z" stroke-linecap="round"/>
</g>
</g>
</g>
<g transform="matrix(-0.408 0.3641 -0.3641 -0.408 770.7245 814.7504)" id="278850">
<g style="" vector-effect="non-scaling-stroke">
		<g transform="matrix(1 0 0 1 162.91 6.3171)" id="Layer_1">
<path style="stroke: none; stroke-width: 1; stroke-dasharray: none; stroke-linecap: butt; stroke-dashoffset: 0; stroke-linejoin: miter; stroke-miterlimit: 4; is-custom-font: none; font-file-url: none; fill: rgb(0,0,0); fill-rule: nonzero; opacity: 1;" transform=" translate(-418.91, -262.3171)" d="M 458.66 88.36 l -32.32 -4.78 A 16.14 16.14 0 0 0 422 81.44 c -6 -1.86 -13.46 -3.63 -20.4 -3.64 a 66.5 66.5 0 0 0 -19.57 3.55 a 15.79 15.79 0 0 0 -11 15 l -0.23 286.73 L 396 442.93 a 6.38 6.38 0 0 0 11.76 0 L 433 383.1 l 0.2 -278.74 l 14.26 2.11 v 96.2 a 9.78 9.78 0 1 0 19.56 0 V 98 A 9.78 9.78 0 0 0 458.66 88.36 Z M 413.14 198.15 a 11.24 11.24 0 1 1 -22.47 0 v -88 a 11.24 11.24 0 1 1 22.47 0 Z" stroke-linecap="round"/>
</g>
		<g transform="matrix(1 0 0 1 35.335 33.63)" id="Layer_1">
<path style="stroke: none; stroke-width: 1; stroke-dasharray: none; stroke-linecap: butt; stroke-dashoffset: 0; stroke-linejoin: miter; stroke-miterlimit: 4; is-custom-font: none; font-file-url: none; fill: rgb(0,0,0); fill-rule: nonzero; opacity: 1;" transform=" translate(-291.335, -289.63)" d="M 235.44 289.63 a 33.63 33.63 0 0 0 33.62 33.63 h 78.17 V 256 H 269.06 A 33.63 33.63 0 0 0 235.44 289.63 Z m 46.69 0 A 12.65 12.65 0 1 1 269.48 277 A 12.66 12.66 0 0 1 282.13 289.63 Z" stroke-linecap="round"/>
</g>
		<g transform="matrix(1 0 0 1 -66.8366 0)" id="Layer_1">
<path style="stroke: none; stroke-width: 1; stroke-dasharray: none; stroke-linecap: butt; stroke-dashoffset: 0; stroke-linejoin: miter; stroke-miterlimit: 4; is-custom-font: none; font-file-url: none; fill: rgb(0,0,0); fill-rule: nonzero; opacity: 1;" transform=" translate(-189.1634, -256)" d="M 215.87 289.63 a 53.25 53.25 0 0 1 53.19 -53.19 h 64.37 V 132 a 7.64 7.64 0 0 0 -7.64 -7.63 H 101.34 c -0.24 0 -24.79 -0.73 -24.79 -17.44 c 0 -15.07 20.83 -15.88 25.54 -15.88 l 182.1 -0.19 a 7.64 7.64 0 0 0 7.63 -7.63 V 72.8 a 7.64 7.64 0 0 0 -7.64 -7.64 H 96 c -17.63 0 -51 10.65 -51 50.93 l 0 276.72 c -0.08 0.93 -1.81 22.95 12.69 38.77 c 9.29 10.12 22.75 15.26 40 15.26 h 228 a 7.64 7.64 0 0 0 7.64 -7.64 V 342.82 H 269.06 A 53.25 53.25 0 0 1 215.87 289.63 Z" stroke-linecap="round"/>
</g>
</g>
</g>
<g transform="matrix(4.659 -0.2552 0.2552 4.659 202.2981 816.4762)" id="984622">
<g style="" vector-effect="non-scaling-stroke">
		<g transform="matrix(1 0 0 1 0.0001 -0.0001)" id="Capa_1">
<path style="stroke: none; stroke-width: 1; stroke-dasharray: none; stroke-linecap: butt; stroke-dashoffset: 0; stroke-linejoin: miter; stroke-miterlimit: 4; is-custom-font: none; font-file-url: none; fill: rgb(0,0,0); fill-rule: nonzero; opacity: 1;" transform=" translate(-29.9991, -29.9989)" d="M 59.206 0.293 c -0.391 -0.391 -1.023 -0.391 -1.414 0 L 54.085 4 H 30.802 L 1.532 33.511 c -0.666 0.666 -1.033 1.553 -1.033 2.495 s 0.367 1.829 1.033 2.495 l 20.466 20.466 c 0.687 0.687 1.588 1.031 2.491 1.031 c 0.907 0 1.814 -0.347 2.509 -1.041 l 28.501 -29.271 V 5.414 l 3.707 -3.707 C 59.597 1.316 59.597 0.684 59.206 0.293 z M 53.499 28.874 L 25.574 57.553 c -0.596 0.596 -1.566 0.596 -2.162 0 L 2.946 37.087 c -0.596 -0.596 -0.596 -1.566 0.003 -2.165 L 31.636 6 h 20.449 l -4.833 4.833 C 46.461 10.309 45.516 10 44.499 10 c -2.757 0 -5 2.243 -5 5 s 2.243 5 5 5 s 5 -2.243 5 -5 c 0 -1.017 -0.309 -1.962 -0.833 -2.753 l 4.833 -4.833 V 28.874 z M 47.499 15 c 0 1.654 -1.346 3 -3 3 s -3 -1.346 -3 -3 s 1.346 -3 3 -3 c 0.462 0 0.894 0.114 1.285 0.301 l -1.992 1.992 c -0.391 0.391 -0.391 1.023 0 1.414 C 43.987 15.902 44.243 16 44.499 16 s 0.512 -0.098 0.707 -0.293 l 1.992 -1.992 C 47.386 14.106 47.499 14.538 47.499 15 z" stroke-linecap="round"/>
</g>
		<g transform="matrix(1 0 0 1 7.651 7.2925)" id="Capa_1">
<path style="stroke: none; stroke-width: 1; stroke-dasharray: none; stroke-linecap: butt; stroke-dashoffset: 0; stroke-linejoin: miter; stroke-miterlimit: 4; is-custom-font: none; font-file-url: none; fill: rgb(0,0,0); fill-rule: nonzero; opacity: 1;" transform=" translate(-37.65, -37.2916)" d="M 42.246 31.281 L 31.64 41.888 c -0.391 0.391 -0.391 1.023 0 1.414 c 0.195 0.195 0.451 0.293 0.707 0.293 s 0.512 -0.098 0.707 -0.293 L 43.66 32.695 c 0.391 -0.391 0.391 -1.023 0 -1.414 S 42.637 30.891 42.246 31.281 z" stroke-linecap="round"/>
</g>
		<g transform="matrix(1 0 0 1 16.49 -1.5427)" id="Capa_1">
<path style="stroke: none; stroke-width: 1; stroke-dasharray: none; stroke-linecap: butt; stroke-dashoffset: 0; stroke-linejoin: miter; stroke-miterlimit: 4; is-custom-font: none; font-file-url: none; fill: rgb(0,0,0); fill-rule: nonzero; opacity: 1;" transform=" translate(-46.489, -28.4562)" d="M 45.779 27.74 c -0.181 0.189 -0.29 0.449 -0.29 0.71 c 0 0.27 0.109 0.529 0.29 0.71 c 0.189 0.189 0.449 0.29 0.71 0.29 c 0.26 0 0.52 -0.101 0.699 -0.29 c 0.19 -0.181 0.301 -0.44 0.301 -0.71 c 0 -0.261 -0.11 -0.521 -0.301 -0.71 C 46.818 27.37 46.159 27.37 45.779 27.74 z" stroke-linecap="round"/>
</g>
		<g transform="matrix(1 0 0 1 1.2864 -6.1426)" id="Capa_1">
<path style="stroke: none; stroke-width: 1; stroke-dasharray: none; stroke-linecap: butt; stroke-dashoffset: 0; stroke-linejoin: miter; stroke-miterlimit: 4; is-custom-font: none; font-file-url: none; fill: rgb(0,0,0); fill-rule: nonzero; opacity: 1;" transform=" translate(-31.2855, -23.8564)" d="M 37.296 19.26 c 0.391 -0.391 0.391 -1.023 0 -1.414 c -0.391 -0.391 -1.023 -0.391 -1.414 0 L 25.275 28.453 c -0.391 0.391 -0.391 1.023 0 1.414 c 0.195 0.195 0.451 0.293 0.707 0.293 s 0.512 -0.098 0.707 -0.293 L 37.296 19.26 z" stroke-linecap="round"/>
</g>
		<g transform="matrix(1 0 0 1 8.0045 -2.9607)" id="Capa_1">
<path style="stroke: none; stroke-width: 1; stroke-dasharray: none; stroke-linecap: butt; stroke-dashoffset: 0; stroke-linejoin: miter; stroke-miterlimit: 4; is-custom-font: none; font-file-url: none; fill: rgb(0,0,0); fill-rule: nonzero; opacity: 1;" transform=" translate(-38.0035, -27.0384)" d="M 33.761 31.281 c 0.195 0.195 0.451 0.293 0.707 0.293 s 0.512 -0.098 0.707 -0.293 l 7.071 -7.071 c 0.391 -0.391 0.391 -1.023 0 -1.414 s -1.023 -0.391 -1.414 0 l -7.071 7.071 C 33.37 30.258 33.37 30.891 33.761 31.281 z" stroke-linecap="round"/>
</g>
		<g transform="matrix(1 0 0 1 -1.895 6.938)" id="Capa_1">
<path style="stroke: none; stroke-width: 1; stroke-dasharray: none; stroke-linecap: butt; stroke-dashoffset: 0; stroke-linejoin: miter; stroke-miterlimit: 4; is-custom-font: none; font-file-url: none; fill: rgb(0,0,0); fill-rule: nonzero; opacity: 1;" transform=" translate(-28.104, -36.9371)" d="M 28.104 35.523 l -1.414 1.414 c -0.391 0.391 -0.391 1.023 0 1.414 c 0.195 0.195 0.451 0.293 0.707 0.293 s 0.512 -0.098 0.707 -0.293 l 1.414 -1.414 c 0.391 -0.391 0.391 -1.023 0 -1.414 S 28.494 35.133 28.104 35.523 z" stroke-linecap="round"/>
</g>
		<g transform="matrix(1 0 0 1 -7.199 -7.5571)" id="Capa_1">
<path style="stroke: none; stroke-width: 1; stroke-dasharray: none; stroke-linecap: butt; stroke-dashoffset: 0; stroke-linejoin: miter; stroke-miterlimit: 4; is-custom-font: none; font-file-url: none; fill: rgb(0,0,0); fill-rule: nonzero; opacity: 1;" transform=" translate(-22.8, -22.4419)" d="M 17.497 28.745 c 0.256 0 0.512 -0.098 0.707 -0.293 l 10.606 -10.606 c 0.391 -0.391 0.391 -1.023 0 -1.414 s -1.023 -0.391 -1.414 0 L 16.79 27.038 c -0.391 0.391 -0.391 1.023 0 1.414 C 16.985 28.647 17.241 28.745 17.497 28.745 z" stroke-linecap="round"/>
</g>
		<g transform="matrix(1 0 0 1 1.64 -16.3922)" id="Capa_1">
<path style="stroke: none; stroke-width: 1; stroke-dasharray: none; stroke-linecap: butt; stroke-dashoffset: 0; stroke-linejoin: miter; stroke-miterlimit: 4; is-custom-font: none; font-file-url: none; fill: rgb(0,0,0); fill-rule: nonzero; opacity: 1;" transform=" translate(-31.639, -13.6069)" d="M 31.639 14.6 c 0.26 0 0.521 -0.1 0.71 -0.29 c 0.181 -0.189 0.29 -0.439 0.29 -0.71 c 0 -0.26 -0.109 -0.52 -0.3 -0.71 c -0.37 -0.37 -1.03 -0.37 -1.41 0.01 c -0.18 0.181 -0.29 0.44 -0.29 0.7 s 0.11 0.521 0.29 0.71 C 31.119 14.5 31.379 14.6 31.639 14.6 z" stroke-linecap="round"/>
</g>
		<g transform="matrix(1 0 0 1 -6.84 1.9973)" id="Capa_1">
<path style="stroke: none; stroke-width: 1; stroke-dasharray: none; stroke-linecap: butt; stroke-dashoffset: 0; stroke-linejoin: miter; stroke-miterlimit: 4; is-custom-font: none; font-file-url: none; fill: rgb(0,0,0); fill-rule: nonzero; opacity: 1;" transform=" translate(-23.159, -31.9963)" d="M 22.449 31.28 c -0.19 0.189 -0.29 0.439 -0.29 0.71 c 0 0.27 0.1 0.52 0.29 0.699 c 0.18 0.19 0.439 0.301 0.71 0.301 c 0.26 0 0.52 -0.11 0.699 -0.29 c 0.19 -0.19 0.301 -0.45 0.301 -0.71 c 0 -0.261 -0.11 -0.521 -0.301 -0.71 C 23.489 30.91 22.818 30.91 22.449 31.28 z" stroke-linecap="round"/>
</g>
		<g transform="matrix(1 0 0 1 1.64 3.4062)" id="Capa_1">
<path style="stroke: none; stroke-width: 1; stroke-dasharray: none; stroke-linecap: butt; stroke-dashoffset: 0; stroke-linejoin: miter; stroke-miterlimit: 4; is-custom-font: none; font-file-url: none; fill: rgb(0,0,0); fill-rule: nonzero; opacity: 1;" transform=" translate(-31.639, -33.4053)" d="M 32.349 34.109 c 0.181 -0.18 0.29 -0.439 0.29 -0.71 c 0 -0.26 -0.109 -0.52 -0.29 -0.71 c -0.38 -0.37 -1.04 -0.37 -1.42 0 c -0.18 0.19 -0.29 0.45 -0.29 0.71 c 0 0.271 0.11 0.521 0.29 0.71 c 0.19 0.19 0.45 0.29 0.71 0.29 S 32.159 34.3 32.349 34.109 z" stroke-linecap="round"/>
</g>
		<g transform="matrix(1 0 0 1 -11.795 12.5959)" id="Capa_1">
<path style="stroke: none; stroke-width: 1; stroke-dasharray: none; stroke-linecap: butt; stroke-dashoffset: 0; stroke-linejoin: miter; stroke-miterlimit: 4; is-custom-font: none; font-file-url: none; fill: rgb(0,0,0); fill-rule: nonzero; opacity: 1;" transform=" translate(-18.204, -42.5949)" d="M 24.651 47.627 c 0.615 -0.929 0.909 -2.041 0.814 -3.172 c -0.078 -0.944 -0.533 -1.797 -1.28 -2.403 c -0.765 -0.619 -1.769 -0.903 -2.738 -0.781 l -2.802 0.35 l -3.846 -3.846 c 1.114 -0.529 2.485 -0.344 3.406 0.577 c 0.391 0.391 1.023 0.391 1.414 0 s 0.391 -1.023 0 -1.414 c -1.707 -1.707 -4.352 -1.918 -6.293 -0.635 l -0.779 -0.779 c -0.391 -0.391 -1.023 -0.391 -1.414 0 s -0.391 1.023 0 1.414 l 0.781 0.781 c -0.614 0.928 -0.908 2.041 -0.813 3.172 c 0.078 0.943 0.533 1.797 1.279 2.402 c 0.765 0.619 1.763 0.904 2.739 0.783 l 2.802 -0.35 l 3.836 3.836 c -1.111 0.501 -2.51 0.318 -3.396 -0.568 c -0.391 -0.391 -1.023 -0.391 -1.414 0 c -0.391 0.39 -0.391 1.023 0 1.414 c 0.943 0.944 2.199 1.465 3.535 1.465 c 0.996 0 1.946 -0.291 2.757 -0.829 l 0.622 0.622 c 0.195 0.195 0.451 0.293 0.707 0.293 s 0.512 -0.098 0.707 -0.293 c 0.391 -0.391 0.391 -1.023 0 -1.414 L 24.651 47.627 z M 14.871 42.092 c -0.438 0.054 -0.889 -0.072 -1.231 -0.352 c -0.319 -0.26 -0.514 -0.62 -0.547 -1.016 c -0.044 -0.536 0.07 -1.059 0.295 -1.532 l 2.742 2.742 L 14.871 42.092 z M 21.695 43.255 c 0.433 -0.059 0.886 0.072 1.229 0.351 c 0.32 0.26 0.515 0.62 0.548 1.016 c 0.044 0.536 -0.07 1.059 -0.296 1.532 l -2.741 -2.741 L 21.695 43.255 z" stroke-linecap="round"/>
</g>
</g>
</g>
<g transform="matrix(1 0 0 1 503.632 486.1108)" style="" id="511821">
		
<path xml:space="preserve" font-family="Aclonica" font-size="127" font-style="normal" font-weight="normal" style="stroke: none; stroke-width: 1; stroke-dasharray: none; stroke-linecap: butt; stroke-dashoffset: 0; stroke-linejoin: miter; stroke-miterlimit: 4; is-custom-font: none; font-file-url: none; fill: rgb(36,63,141); fill-rule: nonzero; opacity: 1; white-space: pre;" d="M-376.29 12.61L-376.29 12.61Q-376.29 18.38-377.74 22.78Q-379.20 27.18-381.84 30.41Q-384.47 33.63-388.07 35.80Q-391.67 37.97-395.91 39.28Q-400.16 40.58-404.91 41.14Q-409.65 41.69-414.55 41.69L-414.55 41.69Q-421.00 41.69-426.45 40.73Q-431.91 39.77-436.72 37.69Q-441.52 35.62-445.96 32.33Q-450.39 29.04-454.79 24.33L-454.79 24.33L-442.14 11.49Q-440.41 15.77-437.37 19.40Q-434.33 23.03-430.70 25.63Q-427.07 28.24-423.17 29.73Q-419.26 31.21-415.79 31.21L-415.79 31.21Q-411.70 31.21-408.10 30.63Q-404.50 30.04-401.84 28.67Q-399.17 27.31-397.65 25.04Q-396.13 22.78-396.13 19.37L-396.13 19.37Q-396.13 16.77-397.31 14.91Q-398.49 13.04-400.38 11.71Q-402.27 10.38-404.69 9.45Q-407.11 8.52-409.62 7.87Q-412.13 7.22-414.55 6.69Q-416.97 6.16-418.83 5.60L-418.83 5.60Q-422.49 4.55-426.45 3.34Q-430.42 2.13-434.27 0.58Q-438.11-0.97-441.55-2.99Q-445.00-5.00-447.60-7.76Q-450.21-10.52-451.76-14.15Q-453.31-17.78-453.31-22.49L-453.31-22.49Q-453.31-28.13-451.91-32.50Q-450.52-36.87-447.97-40.10Q-445.43-43.32-441.96-45.53Q-438.48-47.73-434.33-49.06Q-430.18-50.39-425.49-50.98Q-420.81-51.57-415.91-51.57L-415.91-51.57Q-409.22-51.57-403.73-50.33Q-398.24-49.09-393.59-46.80Q-388.94-44.50-385.06-41.31Q-381.19-38.11-377.78-34.21L-377.78-34.21L-390.43-21.37Q-391.91-25.84-394.55-29.43Q-397.19-33.03-400.41-35.60Q-403.63-38.18-407.17-39.57Q-410.70-40.97-413.99-40.97L-413.99-40.97Q-418.27-40.97-421.87-40.38Q-425.46-39.79-428.04-38.46Q-430.61-37.12-432.04-34.86Q-433.46-32.60-433.46-29.25L-433.46-29.25Q-433.46-26.58-432.41-24.72Q-431.35-22.86-429.59-21.56Q-427.82-20.26-425.59-19.42Q-423.35-18.58-420.97-17.96Q-418.58-17.34-416.25-16.88Q-413.93-16.41-412.01-15.85L-412.01-15.85Q-408.29-14.80-404.19-13.62Q-400.10-12.44-396.13-10.86Q-392.16-9.28-388.57-7.23Q-384.97-5.19-382.24-2.37Q-379.51 0.46-377.90 4.15Q-376.29 7.84-376.29 12.61ZM-341.31-49.03L-341.31-49.03Q-341.31-46.67-342.21-44.56Q-343.11-42.46-344.66-40.91Q-346.21-39.36-348.32-38.46Q-350.43-37.56-352.78-37.56L-352.78-37.56Q-355.14-37.56-357.22-38.46Q-359.30-39.36-360.85-40.91Q-362.40-42.46-363.30-44.56Q-364.19-46.67-364.19-49.03L-364.19-49.03Q-364.19-51.39-363.30-53.46Q-362.40-55.54-360.85-57.09Q-359.30-58.64-357.22-59.54Q-355.14-60.44-352.78-60.44L-352.78-60.44Q-350.43-60.44-348.32-59.54Q-346.21-58.64-344.66-57.09Q-343.11-55.54-342.21-53.46Q-341.31-51.39-341.31-49.03ZM-342.24-31.67L-342.24 39.90L-363.26 39.90L-363.26-31.67L-342.24-31.67ZM-259.64-31.73L-287.86 39.90L-306.71 39.90L-332.75-31.73L-311.79-31.73L-292.70 25.32L-274.15-31.73L-259.64-31.73ZM-179.83-31.73L-179.83 39.90L-200.79 39.90L-200.79 31.34Q-204.51 36.42-209.75 38.87Q-214.99 41.32-221.26 41.32L-221.26 41.32Q-229.44 41.32-235.89 38.41Q-242.34 35.49-246.81 30.44Q-251.27 25.39-253.63 18.56Q-255.98 11.74-255.98 3.93L-255.98 3.93Q-255.98-3.88-253.63-10.71Q-251.27-17.53-246.81-22.58Q-242.34-27.63-235.89-30.55Q-229.44-33.46-221.26-33.46L-221.26-33.46Q-217.10-33.46-213.35-32.22Q-209.60-30.98-206.47-28.72Q-203.34-26.46-200.95-23.26Q-198.56-20.07-197.20-16.16L-197.20-16.16L-187.90-31.73L-179.83-31.73ZM-200.92 3.93L-200.92 3.93Q-200.92 1.14-201.20-1.96Q-201.48-5.06-202.16-8.10Q-202.84-11.14-204.05-13.90Q-205.26-16.66-207.15-18.80Q-209.04-20.94-211.71-22.18Q-214.37-23.42-217.91-23.42L-217.91-23.42Q-221.44-23.42-224.05-22.15Q-226.65-20.88-228.51-18.74Q-230.37-16.60-231.58-13.81Q-232.79-11.02-233.47-7.98Q-234.16-4.94-234.44-1.87Q-234.71 1.20-234.71 3.93L-234.71 3.93Q-234.71 6.66-234.44 9.76Q-234.16 12.86-233.47 15.90Q-232.79 18.94-231.58 21.73Q-230.37 24.52-228.51 26.66Q-226.65 28.80-224.05 30.07Q-221.44 31.34-217.91 31.34L-217.91 31.34Q-214.68 31.34-212.17 30.00Q-209.66 28.67-207.77 26.44Q-205.88 24.21-204.58 21.35Q-203.27 18.50-202.47 15.46Q-201.66 12.42-201.29 9.42Q-200.92 6.41-200.92 3.93ZM-51.84 12.61L-51.84 12.61Q-51.84 18.38-53.30 22.78Q-54.76 27.18-57.39 30.41Q-60.03 33.63-63.62 35.80Q-67.22 37.97-71.47 39.28Q-75.72 40.58-80.46 41.14Q-85.20 41.69-90.10 41.69L-90.10 41.69Q-96.55 41.69-102.01 40.73Q-107.47 39.77-112.27 37.69Q-117.08 35.62-121.51 32.33Q-125.95 29.04-130.35 24.33L-130.35 24.33L-117.70 11.49Q-115.96 15.77-112.92 19.40Q-109.88 23.03-106.26 25.63Q-102.63 28.24-98.72 29.73Q-94.82 31.21-91.34 31.21L-91.34 31.21Q-87.25 31.21-83.65 30.63Q-80.06 30.04-77.39 28.67Q-74.72 27.31-73.20 25.04Q-71.69 22.78-71.69 19.37L-71.69 19.37Q-71.69 16.77-72.86 14.91Q-74.04 13.04-75.93 11.71Q-77.82 10.38-80.24 9.45Q-82.66 8.52-85.17 7.87Q-87.68 7.22-90.10 6.69Q-92.52 6.16-94.38 5.60L-94.38 5.60Q-98.04 4.55-102.01 3.34Q-105.98 2.13-109.82 0.58Q-113.67-0.97-117.11-2.99Q-120.55-5.00-123.16-7.76Q-125.76-10.52-127.31-14.15Q-128.86-17.78-128.86-22.49L-128.86-22.49Q-128.86-28.13-127.47-32.50Q-126.07-36.87-123.53-40.10Q-120.98-43.32-117.51-45.53Q-114.04-47.73-109.88-49.06Q-105.73-50.39-101.05-50.98Q-96.37-51.57-91.47-51.57L-91.47-51.57Q-84.77-51.57-79.28-50.33Q-73.79-49.09-69.14-46.80Q-64.49-44.50-60.62-41.31Q-56.74-38.11-53.33-34.21L-53.33-34.21L-65.98-21.37Q-67.47-25.84-70.10-29.43Q-72.74-33.03-75.96-35.60Q-79.19-38.18-82.72-39.57Q-86.26-40.97-89.54-40.97L-89.54-40.97Q-93.82-40.97-97.42-40.38Q-101.02-39.79-103.59-38.46Q-106.16-37.12-107.59-34.86Q-109.02-32.60-109.02-29.25L-109.02-29.25Q-109.02-26.58-107.96-24.72Q-106.91-22.86-105.14-21.56Q-103.37-20.26-101.14-19.42Q-98.91-18.58-96.52-17.96Q-94.13-17.34-91.81-16.88Q-89.48-16.41-87.56-15.85L-87.56-15.85Q-83.84-14.80-79.75-13.62Q-75.65-12.44-71.69-10.86Q-67.72-9.28-64.12-7.23Q-60.52-5.19-57.79-2.37Q-55.07 0.46-53.45 4.15Q-51.84 7.84-51.84 12.61ZM27.47-13.99L27.47-13.99L18.42-10.40Q16.25-17.22 11.16-20.88Q6.08-24.53-1.05-24.53L-1.05-24.53Q-4.90-24.53-7.91-23.33Q-10.91-22.12-13.18-20.01Q-15.44-17.90-17.02-15.11Q-18.60-12.32-19.60-9.16Q-20.59-5.99-21.02-2.61Q-21.46 0.77-21.46 3.93L-21.46 3.93Q-21.46 7.34-21.08 10.81Q-20.71 14.28-19.81 17.48Q-18.91 20.67-17.43 23.43Q-15.94 26.19-13.67 28.24Q-11.41 30.28-8.28 31.46Q-5.15 32.64-1.05 32.64L-1.05 32.64Q2.23 32.64 5.21 31.65Q8.19 30.66 10.67 28.86Q13.15 27.06 15.07 24.58Q16.99 22.10 18.11 19.06L18.11 19.06L27.22 22.41Q25.18 27.31 21.80 30.87Q18.42 34.44 14.14 36.76Q9.86 39.09 4.96 40.21Q0.06 41.32-4.96 41.32L-4.96 41.32Q-13.08 41.32-20.03 38.56Q-26.98 35.80-32.03 30.81Q-37.08 25.82-39.94 18.97Q-42.79 12.11-42.79 3.93L-42.79 3.93Q-42.79-4.32-39.97-11.20Q-37.14-18.09-32.12-23.05Q-27.10-28.01-20.15-30.74Q-13.21-33.46-4.96-33.46L-4.96-33.46Q0.25-33.46 5.21-32.32Q10.17-31.17 14.42-28.78Q18.67-26.39 22.05-22.74Q25.42-19.08 27.47-13.99ZM100.77-25.40L100.77-25.40L88.99-5.87Q88.24-8.35 87.06-11.45Q85.89-14.55 84.15-17.25Q82.41-19.95 80.00-21.77Q77.58-23.60 74.41-23.60L74.41-23.60Q71.50-23.60 69.36-22.12Q67.22-20.63 65.73-18.24Q64.24-15.85 63.28-12.85Q62.32-9.84 61.79-6.77Q61.27-3.70 61.08-0.88Q60.90 1.94 60.90 3.99L60.90 3.99L60.90 39.90L39.87 39.90L39.87-31.73L47.94-31.73L56.43-15.05Q58.17-19.08 60.40-22.46Q62.63-25.84 65.55-28.29Q68.46-30.74 72.15-32.10Q75.84-33.46 80.49-33.46L80.49-33.46Q82.91-33.46 85.89-33.06Q88.86-32.66 91.72-31.70Q94.57-30.74 96.99-29.19Q99.40-27.63 100.77-25.40ZM124.89 5.91L124.89 5.91Q128.74 6.78 132.58 7.28Q136.43 7.77 140.33 7.77L140.33 7.77Q144.43 7.77 147.93 7.00Q151.43 6.22 154.01 4.39Q156.58 2.56 158.07-0.47Q159.56-3.51 159.56-8.04L159.56-8.04Q159.56-11.70 158.56-14.74Q157.57-17.78 155.62-19.95Q153.67-22.12 150.81-23.33Q147.96-24.53 144.18-24.53L144.18-24.53Q140.64-24.53 137.82-23.23Q135.00-21.93 132.86-19.73Q130.72-17.53 129.20-14.61Q127.68-11.70 126.69-8.54Q125.70-5.37 125.26-2.15Q124.83 1.08 124.83 3.93L124.83 3.93Q124.83 4.43 124.83 4.92Q124.83 5.42 124.89 5.91ZM176.55-8.23L176.55-8.23Q176.55-3.82 175.12-0.38Q173.69 3.06 171.25 5.67Q168.80 8.27 165.57 10.07Q162.35 11.87 158.69 13.01Q155.03 14.16 151.15 14.66Q147.28 15.15 143.62 15.15L143.62 15.15Q138.97 15.15 134.44 14.50Q129.91 13.85 125.51 12.42L125.51 12.42Q126.19 16.52 127.68 20.21Q129.17 23.90 131.65 26.66Q134.13 29.42 137.76 31.03Q141.39 32.64 146.35 32.64L146.35 32.64Q149.63 32.64 152.61 31.65Q155.59 30.66 158.07 28.86Q160.55 27.06 162.44 24.58Q164.33 22.10 165.51 19.06L165.51 19.06L174.56 22.41Q172.52 27.31 168.95 30.87Q165.39 34.44 160.89 36.76Q156.39 39.09 151.34 40.21Q146.29 41.32 141.32 41.32L141.32 41.32Q133.14 41.32 126.19 38.56Q119.25 35.80 114.23 30.84Q109.20 25.88 106.35 19.00Q103.50 12.11 103.50 3.93L103.50 3.93Q103.50-4.26 106.35-11.14Q109.20-18.02 114.23-22.98Q119.25-27.95 126.19-30.70Q133.14-33.46 141.32-33.46L141.32-33.46Q145.29-33.46 149.45-32.91Q153.60-32.35 157.51-31.14Q161.42-29.93 164.89-28.01Q168.36-26.08 170.94-23.26Q173.51-20.44 175.03-16.72Q176.55-13.00 176.55-8.23ZM206.87 5.91L206.87 5.91Q210.72 6.78 214.56 7.28Q218.41 7.77 222.31 7.77L222.31 7.77Q226.40 7.77 229.91 7.00Q233.41 6.22 235.99 4.39Q238.56 2.56 240.05-0.47Q241.54-3.51 241.54-8.04L241.54-8.04Q241.54-11.70 240.54-14.74Q239.55-17.78 237.60-19.95Q235.64-22.12 232.79-23.33Q229.94-24.53 226.16-24.53L226.16-24.53Q222.62-24.53 219.80-23.23Q216.98-21.93 214.84-19.73Q212.70-17.53 211.18-14.61Q209.66-11.70 208.67-8.54Q207.68-5.37 207.24-2.15Q206.81 1.08 206.81 3.93L206.81 3.93Q206.81 4.43 206.81 4.92Q206.81 5.42 206.87 5.91ZM258.53-8.23L258.53-8.23Q258.53-3.82 257.10-0.38Q255.67 3.06 253.22 5.67Q250.78 8.27 247.55 10.07Q244.33 11.87 240.67 13.01Q237.01 14.16 233.13 14.66Q229.26 15.15 225.60 15.15L225.60 15.15Q220.95 15.15 216.42 14.50Q211.89 13.85 207.49 12.42L207.49 12.42Q208.17 16.52 209.66 20.21Q211.15 23.90 213.63 26.66Q216.11 29.42 219.74 31.03Q223.37 32.64 228.33 32.64L228.33 32.64Q231.61 32.64 234.59 31.65Q237.57 30.66 240.05 28.86Q242.53 27.06 244.42 24.58Q246.31 22.10 247.49 19.06L247.49 19.06L256.54 22.41Q254.50 27.31 250.93 30.87Q247.36 34.44 242.87 36.76Q238.37 39.09 233.32 40.21Q228.27 41.32 223.30 41.32L223.30 41.32Q215.12 41.32 208.17 38.56Q201.23 35.80 196.21 30.84Q191.18 25.88 188.33 19.00Q185.48 12.11 185.48 3.93L185.48 3.93Q185.48-4.26 188.33-11.14Q191.18-18.02 196.21-22.98Q201.23-27.95 208.17-30.70Q215.12-33.46 223.30-33.46L223.30-33.46Q227.27-33.46 231.43-32.91Q235.58-32.35 239.49-31.14Q243.40-29.93 246.87-28.01Q250.34-26.08 252.91-23.26Q255.49-20.44 257.01-16.72Q258.53-13.00 258.53-8.23ZM344.85-1.16L344.85-1.16Q344.85 6.10 343.08 13.97Q341.31 21.85 338.15 29.42Q334.99 36.98 330.58 43.65Q326.18 50.31 320.91 55.15L320.91 55.15L313.04 50.87Q314.71 47.77 316.20 43.93Q317.69 40.08 318.90 35.77Q320.10 31.46 321.07 26.87Q322.03 22.28 322.68 17.79Q323.33 13.29 323.67 9.04Q324.01 4.80 324.01 1.14L324.01 1.14Q324.01-1.28 323.83-4.04Q323.64-6.80 323.05-9.56Q322.46-12.32 321.47-14.86Q320.48-17.40 318.83-19.33Q317.19-21.25 314.86-22.43Q312.54-23.60 309.38-23.60L309.38-23.60Q306.28-23.60 303.86-22.21Q301.44-20.81 299.58-18.55Q297.72-16.29 296.39-13.37Q295.05-10.46 294.21-7.39Q293.38-4.32 293.01-1.34Q292.63 1.63 292.63 3.99L292.63 3.99L292.63 39.90L271.61 39.90L271.61-31.73L279.67-31.73L289.28-15.05Q291.02-19.20 293.63-22.61Q296.23-26.02 299.52-28.44Q302.80-30.86 306.80-32.16Q310.80-33.46 315.45-33.46L315.45-33.46Q322.90-33.46 328.41-31.05Q333.93-28.63 337.59-24.32Q341.25-20.01 343.05-14.09Q344.85-8.16 344.85-1.16ZM355.39-49.40L378.09-49.40L374.30-18.27L359.17-18.27L355.39-49.40ZM455.10 17.01L455.10 17.01Q455.10 21.73 453.74 25.39Q452.38 29.04 450.02 31.74Q447.66 34.44 444.44 36.27Q441.21 38.10 437.52 39.21Q433.83 40.33 429.80 40.83Q425.77 41.32 421.80 41.32L421.80 41.32Q416.47 41.32 412.38 40.64Q408.29 39.96 404.56 38.44Q400.84 36.92 397.15 34.50Q393.46 32.08 388.94 28.61L388.94 28.61L401.15 18.63Q402.83 21.79 405.59 24.36Q408.35 26.94 411.32 28.80Q414.30 30.66 417.09 31.65Q419.88 32.64 421.62 32.64L421.62 32.64Q423.04 32.64 424.84 32.55Q426.64 32.45 428.50 32.18Q430.36 31.90 432.16 31.34Q433.96 30.78 435.35 29.82Q436.75 28.86 437.59 27.40Q438.42 25.94 438.42 23.90L438.42 23.90Q438.42 21.79 437.34 20.21Q436.25 18.63 434.52 17.45Q432.78 16.27 430.55 15.46Q428.31 14.66 426.05 14.04Q423.79 13.42 421.68 12.95Q419.57 12.49 418.02 12.05L418.02 12.05Q415.17 11.25 412.01 10.41Q408.84 9.57 405.74 8.49Q402.64 7.40 399.82 5.91Q397.00 4.43 394.86 2.35Q392.72 0.27 391.45-2.55Q390.18-5.37 390.18-9.16L390.18-9.16Q390.18-16.10 392.94-20.78Q395.70-25.46 400.22-28.29Q404.75-31.11 410.52-32.29Q416.28-33.46 422.24-33.46L422.24-33.46Q426.33-33.46 430.86-32.63Q435.38-31.79 439.66-30.15Q443.94-28.50 447.66-26.15Q451.38-23.79 453.86-20.75L453.86-20.75L441.65-10.71Q440.28-14.43 438.08-17.09Q435.88-19.76 433.31-21.46Q430.73-23.17 428.04-23.98Q425.34-24.78 423.04-24.78L423.04-24.78Q420.81-24.78 418.02-24.60Q415.23-24.41 412.78-23.54Q410.33-22.67 408.63-20.91Q406.92-19.14 406.92-16.04L406.92-16.04Q406.92-13.81 407.94-12.23Q408.97-10.64 410.64-9.50Q412.32-8.35 414.46-7.57Q416.59-6.80 418.83-6.21Q421.06-5.62 423.17-5.19Q425.28-4.75 426.95-4.26L426.95-4.26Q429.80-3.45 433.00-2.61Q436.19-1.78 439.29-0.69Q442.39 0.39 445.28 1.85Q448.16 3.31 450.33 5.42Q452.50 7.53 453.80 10.35Q455.10 13.17 455.10 17.01Z"/></g>
</svg>